<svg width="1920" height="650" viewBox="0 0 1920 650" fill="none" xmlns="http://www.w3.org/2000/svg">
<path d="M0.459961 235.37H2.95965" stroke="white" stroke-width="0.5" stroke-linejoin="round"/>
<path d="M7.95898 235.37H1914.52" stroke="white" stroke-width="0.5" stroke-linejoin="round"/>
<path d="M1917.02 235.37H1919.52" stroke="white" stroke-width="0.5" stroke-linejoin="round"/>
<path d="M0.459961 207.93H2.95965" stroke="white" stroke-width="0.5" stroke-linejoin="round"/>
<path d="M7.95898 207.93H1914.52" stroke="white" stroke-width="0.5" stroke-linejoin="round"/>
<path d="M1917.02 207.93H1919.52" stroke="white" stroke-width="0.5" stroke-linejoin="round"/>
<path d="M0 442.3H2.49969" stroke="white" stroke-width="0.5" stroke-linejoin="round"/>
<path d="M7.49902 442.3H1914.06" stroke="white" stroke-width="0.5" stroke-linejoin="round"/>
<path d="M1916.56 442.3H1919.06" stroke="white" stroke-width="0.5" stroke-linejoin="round"/>
<path d="M0 414.85H2.49969" stroke="white" stroke-width="0.5" stroke-linejoin="round"/>
<path d="M7.49902 414.85H1914.06" stroke="white" stroke-width="0.5" stroke-linejoin="round"/>
<path d="M1916.56 414.85H1919.06" stroke="white" stroke-width="0.5" stroke-linejoin="round"/>
<path d="M0.939819 649.22H3.43951" stroke="white" stroke-width="0.5" stroke-linejoin="round"/>
<path d="M8.43884 649.22H1915" stroke="white" stroke-width="0.5" stroke-linejoin="round"/>
<path d="M1917.5 649.22H1920" stroke="white" stroke-width="0.5" stroke-linejoin="round"/>
<path d="M0 621.78H2.49969" stroke="white" stroke-width="0.5" stroke-linejoin="round"/>
<path d="M7.49902 621.78H1914.06" stroke="white" stroke-width="0.5" stroke-linejoin="round"/>
<path d="M1916.56 621.78H1919.06" stroke="white" stroke-width="0.5" stroke-linejoin="round"/>
<path d="M0.939819 28.45H3.43951" stroke="white" stroke-width="0.5" stroke-linejoin="round"/>
<path d="M8.43884 28.45H1915" stroke="white" stroke-width="0.5" stroke-linejoin="round"/>
<path d="M1917.5 28.45H1920" stroke="white" stroke-width="0.5" stroke-linejoin="round"/>
<path d="M0.939819 1H3.43951" stroke="white" stroke-width="0.5" stroke-linejoin="round"/>
<path d="M8.43884 1H1915" stroke="white" stroke-width="0.5" stroke-linejoin="round"/>
<path d="M1917.5 1H1920" stroke="white" stroke-width="0.5" stroke-linejoin="round"/>
<path d="M86.1193 207.93V28.45H216.863V63.83H132.263V98.96H209.174V132.29H132.263V172.54H216.863V207.92H86.1193V207.93Z" fill="white"/>
<path d="M246.349 207.93V28.45H287.114L356.585 128.45V28.45H405.299V207.93H361.715L292.493 107.93V207.93H246.349Z" fill="white"/>
<path d="M483.49 207.93V66.39H428.366V28.45H584.747V66.4H529.624V207.93H483.48H483.49Z" fill="white"/>
<path d="M610.394 207.93V28.45H656.538V207.93H610.394Z" fill="white"/>
<path d="M694.993 207.93V28.45H773.183C788.222 28.45 800.74 30.93 810.739 35.89C820.737 40.85 828.297 47.77 833.426 56.66C838.555 65.55 841.115 76.15 841.115 88.45C841.115 100.75 838.075 112.26 832.016 121.4C825.947 130.55 816.848 137.26 804.709 141.53L846.244 207.94H794.971L760.105 146.4H741.137V207.94H694.993V207.93ZM741.137 110.5H762.925C775.233 110.5 783.642 108.66 788.172 104.99C792.701 101.32 794.971 95.8 794.971 88.45C794.971 81.1 792.701 75.59 788.172 71.91C783.642 68.24 775.223 66.4 762.925 66.4H741.137V110.5Z" fill="white"/>
<path d="M873.161 207.93V28.45H1003.9V63.83H919.305V98.96H996.216V132.29H919.305V172.54H1003.9V207.92H873.161V207.93Z" fill="white"/>
<path d="M1033.39 207.93V28.45H1079.54V169.98H1156.45V207.93H1033.39Z" fill="white"/>
<path d="M1202.34 207.93V140.75L1135.94 28.45H1189.26L1226.69 95.11L1262.06 28.45H1310.26L1248.72 140.75V207.93H1202.32H1202.34Z" fill="white"/>
<path d="M163.03 418.18C146.622 418.18 132.133 415.14 119.575 409.08C107.017 403.02 97.2278 393.23 90.2186 379.72C83.2095 366.22 79.71 348.36 79.71 326.13V321.26C79.71 305.54 81.8497 292.03 86.1192 280.75C90.3886 269.47 96.3279 260.24 103.937 253.06C111.536 245.88 120.385 240.58 130.474 237.16C140.552 233.74 151.411 232.03 163.03 232.03C173.448 232.03 183.287 233.23 192.516 235.62C201.745 238.02 209.824 241.77 216.743 246.9C223.662 252.03 229.261 258.69 233.531 266.9C237.8 275.1 240.36 285.1 241.22 296.9H193.276C191.736 287.5 188.146 280.75 182.507 276.64C176.868 272.54 170.369 270.49 163.02 270.49C156.18 270.49 150.071 272.16 144.692 275.49C139.313 278.82 135.083 284.17 132.003 291.51C128.924 298.86 127.384 308.78 127.384 321.25V326.63C127.384 336.55 128.324 344.92 130.204 351.76C132.083 358.6 134.693 364.07 138.023 368.17C141.352 372.27 145.152 375.22 149.431 377.02C153.701 378.82 158.23 379.71 163.02 379.71C171.738 379.71 178.698 377.62 183.917 373.43C189.126 369.24 192.246 362.53 193.276 353.3H241.22C240.54 365.27 238.1 375.39 233.911 383.68C229.721 391.97 224.172 398.64 217.243 403.68C210.324 408.72 202.245 412.4 193.016 414.71C183.787 417.02 173.788 418.17 163.02 418.17L163.03 418.18Z" fill="#1CD65F"/>
<path d="M268.136 414.85V235.37H346.327C361.365 235.37 373.883 237.85 383.882 242.81C393.881 247.77 401.44 254.69 406.569 263.58C411.699 272.47 414.258 283.07 414.258 295.37C414.258 307.67 411.219 319.18 405.159 328.32C399.09 337.47 389.991 344.18 377.853 348.45L419.388 414.86H368.114L333.248 353.32H314.281V414.86H268.136V414.85ZM314.281 317.42H336.068C348.376 317.42 356.785 315.58 361.315 311.91C365.844 308.24 368.114 302.72 368.114 295.37C368.114 288.02 365.844 282.51 361.315 278.83C356.785 275.16 348.366 273.32 336.068 273.32H314.281V317.42Z" fill="#1CD65F"/>
<path d="M446.314 414.85V235.37H577.058V270.75H492.458V305.88H569.369V339.21H492.458V379.46H577.058V414.84H446.314V414.85Z" fill="#1CD65F"/>
<path d="M593.466 414.85L659.098 235.37H705.242L770.614 414.85H721.9L709.591 380.49H649.599L637.29 414.85H593.446H593.466ZM662.687 345.11H696.533L679.615 291.78L662.697 345.11H662.687Z" fill="#1CD65F"/>
<path d="M815.478 414.85V273.32H760.355V235.37H916.735V273.32H861.612V414.85H815.468H815.478Z" fill="#1CD65F"/>
<path d="M939.812 414.85V235.37H1070.56V270.75H985.957V305.88H1062.87V339.21H985.957V379.46H1070.56V414.84H939.812V414.85Z" fill="#1CD65F"/>
<path d="M1100.04 414.85V235.37H1167.97C1185.92 235.37 1201.3 238.62 1214.12 245.11C1226.94 251.61 1236.77 261.22 1243.6 273.95C1250.43 286.69 1253.86 302.45 1253.86 321.26V326.39C1253.86 345.54 1250.36 361.69 1243.35 374.85C1236.35 388.01 1226.22 397.97 1212.98 404.72C1199.73 411.47 1183.88 414.85 1165.42 414.85H1100.05H1100.04ZM1146.19 376.9H1162.85C1170.71 376.9 1177.85 375.28 1184.26 372.03C1190.67 368.79 1195.93 363.44 1200.03 356C1204.13 348.56 1206.18 338.69 1206.18 326.39V321.26C1206.18 309.64 1204.34 300.32 1200.67 293.31C1196.99 286.3 1192.08 281.22 1185.93 278.05C1179.78 274.89 1172.94 273.31 1165.42 273.31H1146.2V376.89L1146.19 376.9Z" fill="#1CD65F"/>
<path d="M86.1193 621.78V442.3H133.293L183.027 533.32L232.251 442.3H278.395V621.78H232.251V518.96L195.076 587.16H169.439L132.263 518.96V621.78H86.1193Z" fill="white"/>
<path d="M314.291 621.78V442.3H445.034V477.68H360.435V512.81H437.345V546.14H360.435V586.39H445.034V621.77H314.291V621.78Z" fill="white"/>
<path d="M461.442 621.78L527.074 442.3H573.218L638.59 621.78H589.876L577.568 587.42H517.575L505.267 621.78H461.422H461.442ZM530.664 552.04H564.509L547.591 498.71L530.674 552.04H530.664Z" fill="white"/>
<path d="M724.469 625.11C707.722 625.11 693.793 622.89 682.685 618.44C671.576 614 663.237 607.71 657.688 599.59C652.128 591.47 649.189 581.77 648.849 570.49H694.993C696.363 576.99 699.353 581.73 703.962 584.72C708.581 587.71 715.411 589.21 724.469 589.21C734.208 589.21 741.517 587.84 746.387 585.11C751.256 582.38 753.696 578.19 753.696 572.55C753.696 567.93 752.116 564.26 748.956 561.52C745.797 558.79 740.967 556.48 734.468 554.6C727.969 552.72 720.19 550.75 711.141 548.7C699.353 545.97 689.174 542.42 680.635 538.06C672.086 533.7 665.507 527.85 660.897 520.5C656.278 513.15 653.978 503.67 653.978 492.04C653.978 480.41 656.838 471.19 662.567 463.32C668.296 455.46 676.455 449.43 687.054 445.24C697.653 441.05 710.131 438.96 724.479 438.96C740.197 438.96 753.236 441.01 763.575 445.11C773.913 449.21 781.772 455.11 787.162 462.8C792.541 470.49 795.581 479.89 796.26 491H750.116C749.086 485.53 746.607 481.47 742.677 478.82C738.748 476.17 732.678 474.85 724.479 474.85C715.421 474.85 709.101 476.3 705.512 479.21C701.922 482.12 700.132 485.88 700.132 490.49C700.132 496.82 703.422 501.43 710.001 504.34C716.58 507.25 726.109 509.9 738.588 512.29C747.817 514.17 756.235 516.48 763.845 519.21C771.444 521.95 777.943 525.45 783.332 529.72C788.721 533.99 792.861 539.25 795.771 545.49C798.68 551.73 800.13 559.38 800.13 568.44C800.13 580.23 797.14 590.36 791.161 598.82C785.182 607.28 776.553 613.78 765.264 618.31C753.986 622.84 740.397 625.1 724.499 625.1L724.469 625.11Z" fill="white"/>
<path d="M903.927 625.11C888.029 625.11 874.231 622.33 862.522 616.78C850.814 611.23 841.755 602.85 835.346 591.65C828.936 580.46 825.737 566.57 825.737 549.99V442.3H871.881V544.6C871.881 558.45 874.271 568.92 879.06 576.01C883.84 583.11 892.138 586.65 903.927 586.65C915.716 586.65 924.434 583.1 929.054 576.01C933.673 568.92 935.973 558.53 935.973 544.86V442.3H982.117V549.99C982.117 566.57 978.958 580.46 972.628 591.65C966.299 602.85 957.33 611.22 945.712 616.78C934.083 622.33 920.155 625.11 903.927 625.11Z" fill="white"/>
<path d="M1015.44 621.78V442.3H1093.63C1108.67 442.3 1121.19 444.78 1131.19 449.74C1141.19 454.7 1148.75 461.62 1153.88 470.51C1159.01 479.4 1161.56 490 1161.56 502.3C1161.56 514.6 1158.53 526.11 1152.47 535.25C1146.4 544.4 1137.3 551.11 1125.16 555.38L1166.69 621.79H1115.42L1080.55 560.25H1061.59V621.79H1015.44V621.78ZM1061.59 524.35H1083.37C1095.68 524.35 1104.09 522.51 1108.62 518.84C1113.15 515.17 1115.42 509.65 1115.42 502.3C1115.42 494.95 1113.15 489.44 1108.62 485.76C1104.09 482.09 1095.67 480.25 1083.37 480.25H1061.59V524.35Z" fill="white"/>
<path d="M1179.26 621.78L1244.89 442.3H1291.04L1356.41 621.78H1307.7L1295.39 587.42H1235.4L1223.09 621.78H1179.24H1179.26ZM1248.48 552.04H1282.33L1265.41 498.71L1248.49 552.04H1248.48Z" fill="white"/>
<path d="M1376.92 621.78V442.3H1462.8C1483.81 442.3 1499.11 446.45 1508.68 454.74C1518.25 463.03 1523.04 474.87 1523.04 490.25C1523.04 499.48 1520.64 507.39 1515.86 513.97C1511.07 520.55 1504.66 525.3 1496.63 528.2C1507.05 530.6 1515.35 535.42 1521.5 542.69C1527.65 549.96 1530.73 559.4 1530.73 571.02C1530.73 581.45 1528.46 590.47 1523.94 598.07C1519.41 605.68 1512.36 611.53 1502.79 615.63C1493.22 619.73 1480.74 621.78 1465.37 621.78H1376.92ZM1423.06 513.84H1451.52C1461.43 513.84 1468.14 512.26 1471.65 509.1C1475.15 505.94 1476.91 501.45 1476.91 495.64C1476.91 489.83 1475.15 485.17 1471.65 482.18C1468.15 479.19 1461.52 477.69 1451.78 477.69H1423.06V513.84ZM1423.06 586.4H1455.11C1466.22 586.4 1473.91 584.73 1478.19 581.4C1482.45 578.07 1484.59 572.9 1484.59 565.89C1484.59 558.88 1482.41 553.67 1478.06 550.25C1473.7 546.83 1465.79 545.12 1454.34 545.12H1423.06V586.4Z" fill="white"/>
<path d="M1557.66 621.78V442.3H1603.8V583.83H1680.71V621.78H1557.66Z" fill="white"/>
<path d="M1726.6 621.78V554.6L1660.2 442.3H1713.53L1750.95 508.96L1786.33 442.3H1834.52L1772.99 554.6V621.78H1726.58H1726.6Z" fill="white"/>
<path d="M1548.18 207.66H1613.29V235.52H1548.18V207.66Z" fill="white"/>
<path d="M1581.3 321.38C1575.51 321.38 1570.18 319.93 1565.31 317.04C1560.43 314.15 1556.56 310.26 1553.67 305.39C1550.77 300.52 1549.33 295.19 1549.33 289.4C1549.33 280.26 1552.45 272.65 1558.7 266.56C1564.93 260.47 1572.47 257.42 1581.31 257.42C1590.15 257.42 1597.68 260.47 1603.93 266.56C1610.17 272.66 1613.3 280.27 1613.3 289.4C1613.3 295.19 1611.85 300.52 1608.96 305.39C1606.06 310.27 1602.26 314.15 1597.54 317.04C1592.81 319.93 1587.41 321.38 1581.32 321.38H1581.3Z" fill="white"/>
<path d="M1581.3 185.77C1575.51 185.77 1570.18 184.32 1565.31 181.43C1560.43 178.54 1556.56 174.65 1553.67 169.78C1550.77 164.91 1549.33 159.58 1549.33 153.79C1549.33 144.65 1552.45 137.04 1558.7 130.95C1564.93 124.86 1572.47 121.81 1581.31 121.81C1590.15 121.81 1597.68 124.86 1603.93 130.95C1610.17 137.05 1613.3 144.66 1613.3 153.79C1613.3 159.58 1611.85 164.91 1608.96 169.78C1606.06 174.66 1602.26 178.54 1597.54 181.43C1592.81 184.32 1587.41 185.77 1581.32 185.77H1581.3Z" fill="white"/>
</svg>
